<svg xmlns="http://www.w3.org/2000/svg" width="30" height="30" viewBox="0 0 30 30" fill="none"><path fill-rule="evenodd" clip-rule="evenodd" d="M27 25.1502C27 26.1702 26.1696 27 25.1496 27H4.8498C3.8298 27 3 26.1702 3 25.1502V4.8504C3 3.8298 3.8298 3 4.8498 3H25.1496C26.1696 3 27 3.8298 27 4.8504V25.1502zM25.1496.0H4.8498C2.1714.0.0 2.1714.0 4.8504V25.1502C0 27.8286 2.1714 30 4.8498 30H25.1496C27.828 30 30 27.8286 30 25.1502V4.8504C30 2.1714 27.828.0 25.1496.0z" fill="#043653"/><path fill-rule="evenodd" clip-rule="evenodd" d="M22.5 7.19995H7.5C6.6714 7.19995 6 7.87135 6 8.69995 6 9.52855 6.6714 10.2 7.5 10.2h15C23.328 10.2 24 9.52855 24 8.69995 24 7.87135 23.328 7.19995 22.5 7.19995z" fill="#043653"/><path fill-rule="evenodd" clip-rule="evenodd" d="M22.5 13.8H7.5C6.6714 13.8 6 14.4714 6 15.3 6 16.1286 6.6714 16.8 7.5 16.8h15C23.328 16.8 24 16.1286 24 15.3 24 14.4714 23.328 13.8 22.5 13.8z" fill="#043653"/><path fill-rule="evenodd" clip-rule="evenodd" d="M20.1 23.4H7.5C6.6714 23.4 6 22.7286 6 21.9 6 21.0714 6.6714 20.4 7.5 20.4H20.1C20.928 20.4 21.6 21.0714 21.6 21.9 21.6 22.7286 20.928 23.4 20.1 23.4z" fill="#15b2f6"/></svg>